<svg xmlns="http://www.w3.org/2000/svg" width="70" height="70" viewBox="0 0 70 70" role="img" aria-label="e-Devlet amblemi">
  <defs>
    <linearGradient id="red" x1="0" x2="1" y1="0" y2="1">
      <stop offset="0" stop-color="#ff4a4f"/>
      <stop offset="1" stop-color="#c7192b"/>
    </linearGradient>
  </defs>
  <path d="M12 12 46 4l17 13-5 36-28 10L7 45Z" fill="url(#red)"/>
  <path d="M50 21c-10-6-27-1-33 10-5 10 2 18 14 18 9 0 18-4 25-10-6 4-13 6-20 6-10 0-16-5-13-13 4-9 17-13 27-11Z" fill="#fff"/>
  <path d="m48 27 3 4 5-1-3 4 3 5-5-2-3 4v-5l-5-2 5-2Z" fill="#fff"/>
</svg>
